<mxfile host="app.diagrams.net" agent="Mozilla/5.0 (Windows NT 10.0; Win64; x64) AppleWebKit/537.36 (KHTML, like Gecko) Chrome/131.0.0.0 Safari/537.36" version="24.8.8">
  <diagram name="Page-1" id="Vomi8I1mb0VnvBT-yDzH">
    <mxGraphModel dx="1436" dy="774" grid="1" gridSize="10" guides="1" tooltips="1" connect="1" arrows="1" fold="1" page="1" pageScale="1" pageWidth="827" pageHeight="1169" math="0" shadow="0">
      <root>
        <mxCell id="0" />
        <mxCell id="1" parent="0" />
        <mxCell id="UIuMSbjneqzO_yE2jrcw-11" value="" style="shape=table;childLayout=tableLayout;startSize=0;collapsible=0;recursiveResize=0;expand=0;labelBackgroundColor=none;" vertex="1" parent="1">
          <mxGeometry x="20" y="40" width="790" height="490" as="geometry" />
        </mxCell>
        <mxCell id="UIuMSbjneqzO_yE2jrcw-12" value="Inventory" style="shape=tableRow;horizontal=0;swimlaneHead=0;swimlaneBody=0;top=0;left=0;bottom=0;right=0;dropTarget=0;fontStyle=0;fillColor=none;points=[[0,0.5],[1,0.5]];portConstraint=eastwest;startSize=40;collapsible=0;recursiveResize=0;expand=0;labelBackgroundColor=none;" vertex="1" parent="UIuMSbjneqzO_yE2jrcw-11">
          <mxGeometry width="790" height="490" as="geometry" />
        </mxCell>
        <mxCell id="UIuMSbjneqzO_yE2jrcw-13" value="Overview" style="swimlane;swimlaneHead=0;swimlaneBody=0;fontStyle=0;connectable=0;fillColor=#f5f5f5;startSize=40;collapsible=0;recursiveResize=0;expand=0;labelBackgroundColor=none;fontColor=#333333;strokeColor=#666666;" vertex="1" parent="UIuMSbjneqzO_yE2jrcw-12">
          <mxGeometry x="40" width="190" height="490" as="geometry">
            <mxRectangle width="190" height="490" as="alternateBounds" />
          </mxGeometry>
        </mxCell>
        <mxCell id="UIuMSbjneqzO_yE2jrcw-14" value="Receiving" style="swimlane;swimlaneHead=0;swimlaneBody=0;fontStyle=0;connectable=0;fillColor=#dae8fc;startSize=40;collapsible=0;recursiveResize=0;expand=0;labelBackgroundColor=none;strokeColor=#6c8ebf;" vertex="1" parent="UIuMSbjneqzO_yE2jrcw-12">
          <mxGeometry x="230" width="311" height="490" as="geometry">
            <mxRectangle width="311" height="490" as="alternateBounds" />
          </mxGeometry>
        </mxCell>
        <mxCell id="UIuMSbjneqzO_yE2jrcw-16" value="Adjustment" style="swimlane;swimlaneHead=0;swimlaneBody=0;fontStyle=0;connectable=0;fillColor=#d5e8d4;startSize=40;collapsible=0;recursiveResize=0;expand=0;labelBackgroundColor=none;strokeColor=#82b366;" vertex="1" parent="UIuMSbjneqzO_yE2jrcw-12">
          <mxGeometry x="541" width="249" height="490" as="geometry">
            <mxRectangle width="249" height="490" as="alternateBounds" />
          </mxGeometry>
        </mxCell>
      </root>
    </mxGraphModel>
  </diagram>
</mxfile>
